# xmcd CD database file
#
# Track frame offsets:
#	150
#	15975
#	31037
#	43395
#	57165
#	67680
#	78645
#	91932
#	113872
#	128810
#
# Disc length: 1886 seconds
#
# Revision: 6
# Processed by: cddbd v1.5.2PL0 Copyright (c) Steve Scherf et al.
# Submitted via: CDex 1.50
#
DISCID=74075c0a
DTITLE=George Strait - Chill Of An Early Fall
DYEAR=1991
DGENRE=Country
TTITLE0=The Chill Of An Early Fall
TTITLE1=I've Convinced Everybody But Me
TTITLE2=If I Know Me
TTITLE3=You Know Me Better Than That
TTITLE4=Anything You Can Spare
TTITLE5=Home In San Antone
TTITLE6=Lovesick Blues
TTITLE7=Milk Cow Blues
TTITLE8=Her Only Bad Habit Is Me
TTITLE9=Is It Already Time
EXTD=YEAR: 1991
EXTT0=
EXTT1=
EXTT2=
EXTT3=
EXTT4=
EXTT5=
EXTT6=
EXTT7=
EXTT8=
EXTT9=
PLAYORDER=
